<svg xmlns="http://www.w3.org/2000/svg" version="1.1" xmlns:xlink="http://www.w3.org/1999/xlink" width="200" height="200"><svg xmlns="http://www.w3.org/2000/svg" version="1.1" xmlns:xlink="http://www.w3.org/1999/xlink" viewBox="0 0 200 200"><rect width="200" height="200" fill="url('#gradient')"></rect><defs><linearGradient id="SvgjsLinearGradient1006" gradientTransform="rotate(45 0.5 0.5)"><stop offset="0%" stop-color="#dfd2af"></stop><stop offset="100%" stop-color="#b4a75e"></stop></linearGradient></defs><g><g fill="#274e5f" transform="matrix(9.342118601115054,0,0,9.342118601115054,31.942510019325084,150.12167532312284)" stroke="#5d8586" stroke-width="1.05"><path d="M1.16-10.57L4.46-10.57L4.46 0.36Q4.45 2.24 3.39 3.25Q2.32 4.27 0.42 4.27L0.42 4.27Q-0.40 4.27-1.13 4.10L-1.13 4.10L-1.13 1.61Q-0.57 1.70-0.21 1.70L-0.21 1.70Q1.16 1.70 1.16 0.34L1.16 0.34L1.16-10.57ZM0.92-13.29L0.92-13.29Q0.92-13.99 1.43-14.44Q1.93-14.89 2.74-14.89Q3.55-14.89 4.06-14.44Q4.57-13.99 4.57-13.29Q4.57-12.59 4.06-12.14Q3.55-11.69 2.74-11.69Q1.93-11.69 1.43-12.14Q0.92-12.59 0.92-13.29ZM5.91-5.36L5.91-5.36Q5.91-7.87 6.99-9.32Q8.08-10.76 10.02-10.76L10.02-10.76Q11.44-10.76 12.40-9.65L12.40-9.65L12.40-15L15.70-15L15.70 0L12.74 0L12.58-1.13Q11.56 0.20 10 0.20L10 0.20Q8.12 0.20 7.01-1.25Q5.91-2.70 5.91-5.36ZM9.21-5.76L9.20-5.16Q9.20-2.34 10.84-2.34L10.84-2.34Q11.93-2.34 12.40-3.26L12.40-3.26L12.40-7.29Q11.95-8.22 10.86-8.22L10.86-8.22Q9.34-8.22 9.21-5.76L9.21-5.76Z"></path></g></g></svg><style>@media (prefers-color-scheme: light) { :root { filter: none; } }
@media (prefers-color-scheme: dark) { :root { filter: none; } }
</style></svg>